# xmcd
#
# Track frame offsets:
#	182
#	3412
#	20302
#	45120
#	75400
#	101552
#	122342
#	162720
#	184285
#	213765
#
# Disc length: 3244 seconds
#
# Revision: 2
# Processed by: cddbd v1.5.2PL0 Copyright (c) Steve Scherf et al.
# Submitted via: EZCDAudioConverter 7.1.5.1
#
DISCID=6c0caa0a
DTITLE=Albert Collins, Etta James, Joe Walsh - Jump The Blues Away
DYEAR=1989
DGENRE=Blues
TTITLE0=Intro
TTITLE1=Walkaway
TTITLE2=Goin' Down
TTITLE3=The Moon Is Full
TTITLE4=Sweet Little Angel
TTITLE5=Rock Me Baby
TTITLE6=If Trouble Was Money
TTITLE7=Baby, What You Want Me To Do?
TTITLE8=The Blues Don't Care
TTITLE9=Rocky Mountain Way
EXTD=
EXTT0=
EXTT1=
EXTT2=
EXTT3=
EXTT4=
EXTT5=
EXTT6=
EXTT7=
EXTT8=
EXTT9=
PLAYORDER=
